<svg width="161" height="56" xmlns="http://www.w3.org/2000/svg" xmlns:xlink="http://www.w3.org/1999/xlink" xml:space="preserve" overflow="hidden"><defs><clipPath id="clip0"><rect x="68" y="232" width="161" height="56"/></clipPath></defs><g clip-path="url(#clip0)" transform="translate(-68 -232)"><path d="M19.4381 34.5184 23.6241 36.3592 24.3164 35.2536 24.6223 23.5811 23.6241 23.2001 19.4381 21.4398 19.4381 34.5184Z" fill="#00A291" transform="matrix(1 0 0 1.00334 68 232)"/><path d="M0 43.9315 1.10553 44.0067 13.5508 38.9083 14.0607 37.9209 13.685 36.8314 1.27727 24.3861 0 24.2949 0 43.9315Z" fill="#008872" transform="matrix(1 0 0 1.00334 68 232)"/><path d="M23.3128 55.8133 23.7475 54.7078 23.8173 43.0031 23.3128 42.6543 14.0553 37.9209 13.6528 38.5756 22.4756 55.0083 23.3128 55.8133Z" fill="#CFC600" transform="matrix(1 0 0 1.00334 68 232)"/><path d="M0 43.9315 23.3128 55.8133 14.0607 37.9209 0 43.9315Z" fill="#9FC63B" transform="matrix(1 0 0 1.00334 68 232)"/><path d="M23.3128 55.8133 46.69 43.9154 46.6685 43.7866 38.8976 34.9907 38.5917 34.8833 38.2965 35.0765 23.404 55.5772 23.3128 55.8133Z" fill="#CAD200" transform="matrix(1 0 0 1.00334 68 232)"/><path d="M46.69 11.3881 38.0497 7.12693 36.8636 8.28613 33.3431 16.8406 33.6544 18.0642 34.9155 18.0105 46.1533 12.5473 46.69 11.3881Z" fill="#00A8B5" transform="matrix(1 0 0 1.00334 68 232)"/><path d="M46.69 24.4613 23.6241 36.3592 23.6241 23.2001 46.69 11.3881 46.69 24.4613Z" fill="#009982" transform="matrix(1 0 0 1.00334 68 232)"/><path d="M0 24.2949 0.987467 24.3164 13.2664 19.3039 14.109 18.1125 13.2503 16.7064 1.87833 11.7745 0 12.2521 0 24.2949Z" fill="#00A685" transform="matrix(1 0 0 1.00334 68 232)"/><path d="M46.69 43.9154 46.69 30.7564 38.5917 34.878 46.69 43.9154Z" fill="#E8E349" transform="matrix(1 0 0 1.00334 68 232)"/><path d="M23.3128 42.6543 23.3128 55.8133 38.5917 34.8833 23.3128 42.6543Z" fill="#DCDD2C" transform="matrix(1 0 0 1.00334 68 232)"/><path d="M23.6241 13.1591 25.2233 13.2825 37.03 8.15197 38.0497 7.12693 23.6241 0 22.8405 0.8372 22.7761 12.1072 23.6241 13.1591Z" fill="#4FBAAD" transform="matrix(1 0 0 1.00334 68 232)"/><path d="M33.6544 18.0642 38.0497 7.12693 23.6241 13.1644 33.6544 18.0642Z" fill="#68C3CD" transform="matrix(1 0 0 1.00334 68 232)"/><path d="M56.4627 30.7403 61.5879 30.7403C64.0726 30.7403 65.8114 32.4791 65.8114 35.0336 65.8114 37.5881 64.0726 39.4074 61.5879 39.4074L58.8777 39.4074 58.8777 44.0067 56.4627 44.0067ZM61.1371 37.3359C62.2871 37.4182 63.2859 36.5526 63.3685 35.4026 63.3766 35.2869 63.3755 35.1706 63.3642 35.0551 63.4673 33.9216 62.6322 32.9191 61.4988 32.816 61.3925 32.8064 61.2863 32.805 61.18 32.8118L58.8831 32.8118 58.8831 37.3359ZM67.2121 30.7403 69.6271 30.7403 69.6271 39.2411C69.6271 41.0174 70.7863 42.0264 72.5627 42.0264 74.3391 42.0264 75.5144 41.0174 75.5144 39.225L75.5144 30.7403 77.9294 30.7403 77.9294 39.2411C77.9294 42.2142 75.7827 44.2321 72.5627 44.2321 69.3427 44.2321 67.196 42.2142 67.196 39.2411ZM80.339 30.7403 85.0885 30.7403C87.482 30.7403 89.1833 31.9746 89.1833 34.1588 89.2192 35.3317 88.5983 36.4267 87.5733 36.9978L87.5733 37.03C88.9144 37.4637 89.7956 38.7459 89.7199 40.1534 89.7199 42.8045 87.5733 44.0013 85.1368 44.0013L80.3068 44.0013ZM85.0885 36.1606C85.9772 36.1828 86.7162 35.4802 86.7382 34.5913 86.7393 34.5473 86.7388 34.5033 86.7361 34.4594 86.8026 33.6143 86.1715 32.8753 85.3262 32.8087 85.2345 32.8014 85.1427 32.8025 85.0509 32.8118L82.754 32.8118 82.754 36.1606ZM85.33 41.9351C86.3883 41.9351 87.2459 41.0774 87.2459 40.0192 87.2459 38.9611 86.3883 38.1033 85.33 38.1033L82.754 38.1033 82.754 41.9351ZM91.8022 30.7403 94.2118 30.7403 94.2118 41.9351 99.9542 41.9351 99.9542 44.0067 91.8022 44.0067 91.8022 30.7403ZM101.784 30.7403 104.194 30.7403 104.194 44.0067 101.784 44.0067ZM107.333 40.6042C108.238 41.4433 109.407 41.9406 110.639 42.0103 111.648 42.0103 112.566 41.4736 112.566 40.4003 112.566 38.0282 106.303 38.4414 106.303 34.3628 106.303 32.1624 108.208 30.5149 110.752 30.5149 112.208 30.4594 113.629 30.969 114.718 31.937L113.645 33.8959C112.826 33.1939 111.797 32.7858 110.72 32.7367 109.603 32.7367 108.723 33.3914 108.723 34.3467 108.723 36.6973 114.965 36.1177 114.965 40.3627 114.965 42.4718 113.355 44.2482 110.591 44.2482 108.879 44.2638 107.232 43.5976 106.013 42.3967ZM116.838 30.7403 119.247 30.7403 119.247 36.3645 125.322 36.3645 125.322 30.7403 127.737 30.7403 127.737 44.0067 125.322 44.0067 125.322 38.4361 119.247 38.4361 119.247 44.0067 116.838 44.0067 116.838 30.7403ZM130.56 30.7403 132.97 30.7403 132.97 44.0067 130.56 44.0067ZM135.777 30.7403 138.186 30.7403 143.215 38.3985C143.637 39.0611 144.02 39.7474 144.363 40.4539 144.363 40.4539 144.235 39.1874 144.235 38.3985L144.235 30.7403 146.628 30.7403 146.628 44.0067 144.235 44.0067 139.206 36.3645C138.799 35.7009 138.43 35.0146 138.1 34.3091L138.063 34.3091C138.063 34.3091 138.197 35.581 138.197 36.3645L138.197 44.0067 135.777 44.0067ZM155.408 30.5149C158.66 30.5149 160.345 32.2 160.345 32.2L159.148 33.9925C158.15 33.1926 156.913 32.7505 155.633 32.7367 152.66 32.7367 151.066 34.7921 151.066 37.293 151.066 40.1749 153.031 42.0425 155.515 42.0425 156.764 42.0077 157.954 41.5082 158.853 40.6418L158.853 39.0908 156.814 39.0908 156.814 37.03 161 37.03 161 44.0067 158.945 44.0067 158.945 42.8367 158.907 42.8367C157.855 43.7593 156.496 44.2568 155.097 44.2321 151.603 44.2321 148.592 41.5487 148.592 37.352 148.511 33.6569 151.441 30.5957 155.136 30.5148 155.236 30.5126 155.335 30.5126 155.435 30.5149M62.79 9.76197C67.298 9.76197 69.552 13.3093 69.552 17.3129 69.552 17.6778 69.4876 18.2091 69.4876 18.2091L56.1944 18.2091C56.1944 23.0391 59.4412 25.7654 63.2891 25.7654 65.2045 25.7496 67.042 25.0029 68.425 23.6777L69.1871 24.8369C67.5599 26.2866 65.4631 27.0987 63.2837 27.1231 58.6094 27.1231 54.7293 23.7421 54.7293 18.4774 54.7293 12.8746 58.5396 9.76197 62.7793 9.76197M68.0815 16.9157C67.9152 12.8746 65.4948 11.0553 62.7471 11.0553 59.6988 11.0553 56.8813 13.041 56.3071 16.9157ZM72.5681 10.1591 73.9634 10.1591 73.9634 13.0732C73.9639 13.5291 73.9189 13.984 73.8292 14.431L73.899 14.431C74.7255 11.9462 77.6557 9.76197 80.2585 9.76197 83.5751 9.76197 85.1314 11.3183 85.4964 14.2646L85.5661 14.2646C86.4946 11.9462 89.0115 9.76197 91.8612 9.76197 96.1546 9.76197 97.3996 12.2789 97.3996 16.202L97.3996 26.726 96.0043 26.726 96.0043 16.7172C96.0043 13.6045 95.3764 11.0553 91.8612 11.0553 89.1135 11.0553 86.7575 13.5079 86.0277 16.0893 85.791 16.9178 85.6788 17.7769 85.6949 18.6384L85.6949 26.726 84.305 26.726 84.305 16.7172C84.305 13.8675 83.9078 11.0553 80.2585 11.0553 77.3122 11.0553 74.9884 13.6367 74.2264 16.3898 74.0353 17.1236 73.9468 17.8803 73.9634 18.6384L73.9634 26.726 72.5681 26.726ZM108.24 9.76197C112.748 9.76197 115.002 13.3093 115.002 17.3129 115.002 17.6778 114.938 18.2091 114.938 18.2091L101.645 18.2091C101.645 23.0391 104.865 25.7654 108.739 25.7654 110.655 25.7496 112.492 25.0029 113.875 23.6777L114.637 24.8369C113.01 26.2866 110.913 27.0987 108.734 27.1231 104.06 27.1231 100.18 23.7421 100.18 18.4774 100.18 12.8746 103.99 9.76197 108.23 9.76197M113.532 16.9157C113.365 12.8746 110.95 11.0553 108.197 11.0553 105.149 11.0553 102.332 13.041 101.757 16.9157ZM118.018 10.1591 119.414 10.1591 119.414 13.304C119.414 13.7616 119.369 14.2182 119.28 14.6671L119.349 14.6671C120.176 12.1126 122.033 10.0249 124.652 10.0249 124.974 10.0285 125.296 10.0627 125.612 10.1269L125.612 11.5169C125.36 11.4779 125.106 11.4564 124.85 11.4525 122.263 11.4525 120.637 13.6367 119.907 16.0893 119.57 17.2172 119.403 18.3895 119.414 19.5669L119.414 26.726 118.018 26.726ZM136.485 16.6367 137.558 16.6367 137.558 16.1C137.558 12.4238 135.669 11.1627 133.018 11.1627 131.303 11.1637 129.636 11.7295 128.274 12.7727L127.48 11.6457C129.073 10.3803 131.059 9.71372 133.093 9.76197 136.904 9.76197 138.959 11.8818 138.959 16.0249L138.959 26.726 137.569 26.726 137.569 24.5364C137.569 24.0465 137.616 23.5577 137.709 23.0767L137.644 23.0767C137.676 23.0767 136.152 27.15 131.843 27.15 129.16 27.15 126.208 25.658 126.208 22.3468 126.208 16.7118 133.533 16.6474 136.485 16.6474M131.907 25.8566C135.524 25.8566 137.58 22.0999 137.58 18.8316L137.58 17.9139 136.507 17.9139C133.689 17.9139 127.657 17.9139 127.657 22.2073 127.657 23.9622 129.079 25.819 131.897 25.819M142.421 26.7206 142.421 3.45613 143.816 3.45613 143.816 26.7206M153.798 9.76197C157.973 9.76197 159.53 13.5186 159.53 13.5186L159.594 13.5186C159.508 13.0712 159.465 12.6166 159.465 12.1609L159.465 3.22 160.855 3.22 160.855 26.726 159.465 26.726 159.465 24.6384C159.46 24.2145 159.503 23.7913 159.594 23.3772L159.53 23.3772C158.48 25.7337 156.108 27.2193 153.53 27.1339 149.086 27.1339 146.37 23.5865 146.37 18.4506 146.37 13.1859 149.451 9.7727 153.798 9.7727M153.594 25.76C156.648 25.76 159.497 23.6133 159.497 18.4023 159.497 14.7261 157.608 11.1144 153.728 11.1144 150.481 11.1144 147.825 13.7977 147.825 18.4345 147.83 22.9157 150.213 25.76 153.594 25.76" fill="#005156" transform="matrix(1 0 0 1.00334 68 232)"/><path d="M0 24.2949 14.0607 37.9209 14.109 18.1125 0 24.2949Z" fill="#00A685" transform="matrix(1 0 0 1.00334 68 232)"/><path d="M23.6241 0 0 12.2521 14.109 18.1125 23.6241 13.1644 23.6241 0Z" fill="#007179" transform="matrix(1 0 0 1.00334 68 232)"/></g></svg>